# xmcd
#
# Track frame offsets: 
#        150
#        29460
#        47118
#        63283
#        78034
#        92633
#        96490
#        110857
#        137875
#        151818
#        178251
#        202628
#
# Disc length: 3120 seconds
#
# Revision: 2
# Processed by: cddbd v1.5.2PL0 Copyright (c) Steve Scherf et al.
# Submitted via: ExactAudioCopy v1.0b3
#
DISCID=9c0c2e0c
DTITLE=Preservation Hall - The Best of the Early Years
DYEAR=2004
DGENRE=Jazz
TTITLE0=Sweet Emma and Her... - Weary Blues
TTITLE1=Olympia Brass Band - Down by the Riverside
TTITLE2=Billie and DeDe and Their... - Peanut Vendor
TTITLE3=Humphrey Brothers and Their... - Nelly Gray
TTITLE4=Billie and DeDe and Their... - St. James Infirmary
TTITLE5=Olympia Brass Band - Everything's Lovely
TTITLE6=Olympia Brass Band - Olympia on Parade
TTITLE7=Humphrey Brothers and Their... - So Long Blues
TTITLE8=Humphrey Brothers and Their - Ain't Got Nobody
TTITLE9=Sweet Emma and Her... - When the Saints Go Marching In
TTITLE10=Humphrey Brothers and Their... - Hindustan
TTITLE11=Billie and DeDe and Their... - Lonesome Road
EXTD=YEAR: 2004
EXTT0=
EXTT1=
EXTT2=
EXTT3=
EXTT4=
EXTT5=
EXTT6=
EXTT7=
EXTT8=
EXTT9=
EXTT10=
EXTT11=
PLAYORDER=
